<svg width="90" height="100" viewBox="0 0 90 100" fill="none" xmlns="http://www.w3.org/2000/svg">
<g clip-path="url(#clip0_14_20)">
<path d="M65.6188 94.0496C65.187 94.8009 64.5911 95.3191 63.8915 95.3191C56.1188 95.7509 48.778 97.91 41.4371 96.1827C33.6644 94.4555 26.7553 97.91 18.9826 96.6146C17.0395 95.9668 15.0963 95.3191 13.6929 93.9373C5.31565 94.5678 0 95.5091 0 96.5584C0 98.4584 17.4367 100.013 38.9498 100.013C60.4629 100.013 77.904 98.4714 77.904 96.5584C77.904 95.5782 73.1842 94.6757 65.6188 94.0496Z" fill="#CCCCCE"/>
<path d="M65.2345 36.618L40.2884 36.9419L37.2355 38.7555L34.4114 36.618H28.5085V47.5775L26.2803 50.3843L23.1453 48.4368L22.6444 36.618H12.6738V91.0398H65.2345V36.618Z" fill="#FFDB01"/>
<path d="M16.8624 36.618H13.3906V91.0398H16.8624V36.618Z" fill="white"/>
<path d="M65.2345 36.618L56.1923 36.7173V91.0398H65.2345V36.618Z" fill="#FF8603"/>
<path d="M61.3697 97.1586H16.5343C15.2531 97.1575 14.0247 96.6481 13.1188 95.7421C12.2128 94.8362 11.7034 93.6078 11.7022 92.3266V25.991C11.7045 24.7106 12.2145 23.4833 13.1203 22.5783C14.0261 21.6733 15.2538 21.1644 16.5343 21.1633H22.964C23.0962 21.1545 23.2287 21.1729 23.3535 21.2174C23.4783 21.2619 23.5926 21.3315 23.6893 21.422C23.7861 21.5125 23.8632 21.6219 23.9159 21.7434C23.9686 21.8649 23.9959 21.996 23.9959 22.1284C23.9959 22.2609 23.9686 22.3919 23.9159 22.5135C23.8632 22.635 23.7861 22.7444 23.6893 22.8348C23.5926 22.9253 23.4783 22.995 23.3535 23.0395C23.2287 23.084 23.0962 23.1024 22.964 23.0935H16.5343C15.7661 23.0947 15.0298 23.4003 14.4867 23.9434C13.9435 24.4866 13.6379 25.2229 13.6368 25.991V92.3266C13.6379 93.0951 13.9434 93.8319 14.4864 94.3757C15.0294 94.9195 15.7657 95.2261 16.5343 95.2284H61.3697C62.1382 95.2261 62.8746 94.9195 63.4176 94.3757C63.9606 93.8319 64.2661 93.0951 64.2672 92.3266V25.991C64.2661 25.2229 63.9605 24.4866 63.4173 23.9434C62.8742 23.4003 62.1378 23.0947 61.3697 23.0935H39.6839C39.5518 23.1024 39.4192 23.084 39.2944 23.0395C39.1696 22.995 39.0554 22.9253 38.9586 22.8348C38.8619 22.7444 38.7847 22.635 38.732 22.5135C38.6793 22.3919 38.6521 22.2609 38.6521 22.1284C38.6521 21.996 38.6793 21.8649 38.732 21.7434C38.7847 21.6219 38.8619 21.5125 38.9586 21.422C39.0554 21.3315 39.1696 21.2619 39.2944 21.2174C39.4192 21.1729 39.5518 21.1545 39.6839 21.1633H61.3697C62.6494 21.1656 63.876 21.675 64.7809 22.5798C65.6858 23.4847 66.1952 24.7113 66.1975 25.991V92.3266C66.1963 93.6071 65.6874 94.8348 64.7824 95.7406C63.8774 96.6464 62.6502 97.1564 61.3697 97.1586Z" fill="#231F20"/>
<path d="M34.7871 23.0935H28.5085C28.3763 23.1024 28.2438 23.084 28.119 23.0395C27.9942 22.995 27.8799 22.9253 27.7832 22.8348C27.6865 22.7444 27.6093 22.635 27.5566 22.5135C27.5039 22.3919 27.4767 22.2609 27.4767 22.1284C27.4767 21.996 27.5039 21.8649 27.5566 21.7434C27.6093 21.6219 27.6865 21.5125 27.7832 21.422C27.8799 21.3315 27.9942 21.2619 28.119 21.2174C28.2438 21.1729 28.3763 21.1545 28.5085 21.1633H34.7871C34.9193 21.1545 35.0519 21.1729 35.1766 21.2174C35.3014 21.2619 35.4157 21.3315 35.5125 21.422C35.6092 21.5125 35.6863 21.6219 35.739 21.7434C35.7918 21.8649 35.819 21.996 35.819 22.1284C35.819 22.2609 35.7918 22.3919 35.739 22.5135C35.6863 22.635 35.6092 22.7444 35.5125 22.8348C35.4157 22.9253 35.3014 22.995 35.1766 23.0395C35.0519 23.084 34.9193 23.1024 34.7871 23.0935Z" fill="#231F20"/>
<path d="M65.2345 92.3266H12.6695C12.5373 92.3355 12.4047 92.3171 12.28 92.2726C12.1552 92.2281 12.0409 92.1584 11.9442 92.0679C11.8474 91.9775 11.7703 91.8681 11.7176 91.7466C11.6648 91.625 11.6376 91.494 11.6376 91.3615C11.6376 91.229 11.6648 91.098 11.7176 90.9765C11.7703 90.855 11.8474 90.7456 11.9442 90.6551C12.0409 90.5646 12.1552 90.4949 12.28 90.4504C12.4047 90.4059 12.5373 90.3876 12.6695 90.3964H65.2345C65.4793 90.4128 65.7087 90.5216 65.8763 90.7008C66.0439 90.88 66.1372 91.1161 66.1372 91.3615C66.1372 91.6069 66.0439 91.843 65.8763 92.0222C65.7087 92.2014 65.4793 92.3102 65.2345 92.3266Z" fill="#231F20"/>
<path d="M65.2345 37.9091H40.2885C40.0319 37.9091 39.7859 37.8072 39.6045 37.6258C39.4231 37.4444 39.3212 37.1984 39.3212 36.9419C39.3212 36.6853 39.4231 36.4393 39.6045 36.2579C39.7859 36.0765 40.0319 35.9746 40.2885 35.9746H65.2345C65.491 35.9746 65.737 36.0765 65.9184 36.2579C66.0998 36.4393 66.2017 36.6853 66.2017 36.9419C66.2017 37.1984 66.0998 37.4444 65.9184 37.6258C65.737 37.8072 65.491 37.9091 65.2345 37.9091Z" fill="#231F20"/>
<path d="M34.7871 37.9091H29.4714C29.2149 37.9091 28.9689 37.8072 28.7875 37.6258C28.6061 37.4444 28.5042 37.1984 28.5042 36.9419C28.5042 36.6853 28.6061 36.4393 28.7875 36.2579C28.9689 36.0765 29.2149 35.9746 29.4714 35.9746H34.7871C35.0436 35.9746 35.2897 36.0765 35.4711 36.2579C35.6525 36.4393 35.7544 36.6853 35.7544 36.9419C35.7544 37.1984 35.6525 37.4444 35.4711 37.6258C35.2897 37.8072 35.0436 37.9091 34.7871 37.9091Z" fill="#231F20"/>
<path d="M22.6444 37.9091H12.6695C12.413 37.9091 12.1669 37.8072 11.9855 37.6258C11.8041 37.4444 11.7022 37.1984 11.7022 36.9419C11.7022 36.6853 11.8041 36.4393 11.9855 36.2579C12.1669 36.0765 12.413 35.9746 12.6695 35.9746H22.6444C22.901 35.9746 23.147 36.0765 23.3284 36.2579C23.5098 36.4393 23.6117 36.6853 23.6117 36.9419C23.6117 37.1984 23.5098 37.4444 23.3284 37.6258C23.147 37.8072 22.901 37.9091 22.6444 37.9091Z" fill="#231F20"/>
<path d="M63.9865 24.0608C63.848 24.0616 63.7109 24.0322 63.5849 23.9744C63.4676 23.9218 63.3619 23.8464 63.274 23.7524C63.1861 23.6585 63.1179 23.548 63.0733 23.4274C63.0286 23.3067 63.0085 23.1784 63.0141 23.0499C63.0196 22.9214 63.0508 22.7953 63.1056 22.679C63.6718 21.4292 63.9154 20.0574 63.8144 18.6892C63.7133 17.3209 63.2707 15.9998 62.5271 14.8468C61.7835 13.6938 60.7626 12.7456 59.5578 12.0892C58.3531 11.4327 57.0029 11.0888 55.6309 11.089C55.2655 11.0883 54.9005 11.1128 54.5384 11.1624C54.4018 11.18 54.2629 11.1683 54.1312 11.1281C53.9994 11.0879 53.8777 11.0201 53.7741 10.9293C53.6702 10.8393 53.587 10.7278 53.5303 10.6026C53.4737 10.4773 53.4449 10.3413 53.4459 10.2038V10.1304C53.4528 8.35391 52.8828 6.6232 51.8218 5.19838C50.7607 3.77357 49.2658 2.73165 47.5619 2.22922C45.8579 1.72679 44.0369 1.791 42.3725 2.41221C40.7082 3.03341 39.2904 4.17805 38.3323 5.67406C38.2604 5.78535 38.1667 5.88095 38.0568 5.95515C37.947 6.02936 37.8234 6.08062 37.6933 6.10588C37.5633 6.12944 37.4298 6.12587 37.3012 6.0954C37.1727 6.06493 37.0518 6.00823 36.9462 5.92883C35.7242 5.02727 34.276 4.48255 32.7627 4.35532C31.2495 4.22809 29.7306 4.52334 28.3752 5.20819C27.0199 5.89305 25.8811 6.94063 25.0859 8.23432C24.2906 9.52801 23.87 11.017 23.8708 12.5356C23.8708 12.7343 23.8708 12.9458 23.9011 13.2006C23.9143 13.3711 23.8822 13.5421 23.8078 13.6962C23.7335 13.8502 23.6196 13.9818 23.4778 14.0775C23.3361 14.1732 23.1714 14.2296 23.0008 14.2409C22.8301 14.2522 22.6594 14.2181 22.5063 14.142C21.6583 13.7159 20.7219 13.4955 19.7729 13.4986C18.1413 13.4997 16.5768 14.1484 15.423 15.3021C14.2693 16.4559 13.6206 18.0203 13.6195 19.652C13.6156 20.622 13.8451 21.5788 14.2888 22.4415C14.3859 22.6682 14.3926 22.9234 14.3077 23.155C14.2228 23.3865 14.0527 23.5769 13.8321 23.6872C13.6116 23.7975 13.3572 23.8194 13.121 23.7484C12.8848 23.6773 12.6847 23.5188 12.5616 23.3051C11.8525 21.9042 11.566 20.3272 11.7371 18.7664C11.9082 17.2055 12.5295 15.7281 13.5253 14.5141C14.521 13.3 15.8484 12.4017 17.3456 11.9285C18.8428 11.4553 20.4453 11.4277 21.9579 11.849C22.1297 9.28286 23.2695 6.87765 25.1469 5.11972C27.0243 3.3618 29.4991 2.38231 32.071 2.3793C33.8971 2.37719 35.689 2.87444 37.2528 3.81725C38.5079 2.23099 40.2089 1.05658 42.137 0.445142C44.0652 -0.166297 46.1321 -0.186791 48.072 0.386296C50.0118 0.959383 51.7358 2.09983 53.0221 3.66089C54.3084 5.22196 55.0982 7.13221 55.2898 9.14586H55.5877C57.2825 9.1475 58.9498 9.57376 60.4374 10.3857C61.925 11.1976 63.1855 12.3694 64.1037 13.7939C65.0219 15.2184 65.5685 16.8502 65.6936 18.5403C65.8187 20.2305 65.5184 21.925 64.82 23.4692C64.7506 23.6361 64.6356 23.7801 64.4882 23.8847C64.3408 23.9893 64.167 24.0503 63.9865 24.0608Z" fill="#231F20"/>
<path d="M48.5707 14.4399C48.3851 14.441 48.2032 14.3885 48.0468 14.2886C47.8904 14.1888 47.7662 14.0459 47.6891 13.8771C47.612 13.7083 47.5853 13.5208 47.6122 13.3372C47.6392 13.1537 47.7186 12.9817 47.8409 12.8422C49.2114 11.2535 51.0292 10.1152 53.0569 9.57591C55.0845 9.03664 57.2277 9.12154 59.2063 9.81951C59.3332 9.85564 59.4513 9.91734 59.5534 10.0008C59.6555 10.0843 59.7395 10.1877 59.8001 10.3048C59.8608 10.4219 59.8969 10.5502 59.9061 10.6818C59.9154 10.8133 59.8977 10.9454 59.854 11.0699C59.8104 11.1943 59.7418 11.3085 59.6523 11.4055C59.5629 11.5025 59.4546 11.5801 59.3341 11.6337C59.2136 11.6872 59.0834 11.7156 58.9515 11.717C58.8196 11.7184 58.6888 11.6928 58.5672 11.6418C56.9541 11.073 55.2069 11.0045 53.5543 11.4452C51.9016 11.8859 50.4204 12.8153 49.3047 14.1118C49.2135 14.2164 49.1005 14.2999 48.9738 14.3565C48.847 14.4132 48.7095 14.4417 48.5707 14.4399Z" fill="#231F20"/>
<path d="M25.7363 50.9932C23.6765 50.9932 22.001 49.4602 22.001 47.5775V22.2903C21.9922 22.1582 22.0106 22.0256 22.0551 21.9008C22.0996 21.7761 22.1692 21.6618 22.2597 21.565C22.3502 21.4683 22.4596 21.3912 22.5811 21.3384C22.7026 21.2857 22.8337 21.2585 22.9661 21.2585C23.0986 21.2585 23.2296 21.2857 23.3512 21.3384C23.4727 21.3912 23.5821 21.4683 23.6726 21.565C23.7631 21.6618 23.8327 21.7761 23.8772 21.9008C23.9217 22.0256 23.9401 22.1582 23.9313 22.2903V47.5775C23.9313 48.3936 24.7431 49.0586 25.7363 49.0586C26.7294 49.0586 27.5412 48.3936 27.5412 47.5775V22.2903C27.5324 22.1582 27.5508 22.0256 27.5953 21.9008C27.6398 21.7761 27.7094 21.6618 27.7999 21.565C27.8904 21.4683 27.9998 21.3912 28.1213 21.3384C28.2428 21.2857 28.3739 21.2585 28.5063 21.2585C28.6388 21.2585 28.7699 21.2857 28.8914 21.3384C29.0129 21.3912 29.1223 21.4683 29.2128 21.565C29.3033 21.6618 29.3729 21.7761 29.4174 21.9008C29.4619 22.0256 29.4803 22.1582 29.4714 22.2903V47.5775C29.4714 49.4602 27.796 50.9932 25.7363 50.9932Z" fill="#231F20"/>
<path d="M37.2355 39.7228C36.33 39.7216 35.4618 39.3614 34.8215 38.7211C34.1812 38.0808 33.821 37.2127 33.8198 36.3071V22.2904C33.8198 22.0338 33.9217 21.7878 34.1031 21.6064C34.2845 21.425 34.5306 21.3231 34.7871 21.3231C35.0436 21.3231 35.2897 21.425 35.4711 21.6064C35.6525 21.7878 35.7544 22.0338 35.7544 22.2904V36.3071C35.7544 36.6999 35.9104 37.0767 36.1882 37.3544C36.4659 37.6322 36.8427 37.7882 37.2355 37.7882C37.6283 37.7882 38.005 37.6322 38.2828 37.3544C38.5606 37.0767 38.7166 36.6999 38.7166 36.3071V22.2904C38.7166 22.0338 38.8185 21.7878 38.9999 21.6064C39.1813 21.425 39.4274 21.3231 39.6839 21.3231C39.9404 21.3231 40.1865 21.425 40.3679 21.6064C40.5493 21.7878 40.6512 22.0338 40.6512 22.2904V36.3071C40.65 37.2127 40.2898 38.0808 39.6495 38.7211C39.0092 39.3614 38.141 39.7216 37.2355 39.7228Z" fill="#231F20"/>
<path d="M84.2301 86.2898H65.2301C64.9736 86.2898 64.7276 86.1879 64.5462 86.0065C64.3648 85.8251 64.2629 85.5791 64.2629 85.3226V79.1217C64.2629 78.8652 64.3648 78.6191 64.5462 78.4377C64.7276 78.2563 64.9736 78.1544 65.2301 78.1544H78.8194C79.3279 78.1544 79.8156 77.9524 80.1751 77.5929C80.5347 77.2333 80.7367 76.7456 80.7367 76.2372V42.0848C80.7367 41.5763 80.5347 41.0887 80.1751 40.7291C79.8156 40.3695 79.3279 40.1675 78.8194 40.1675H65.2345C64.9779 40.1675 64.7319 40.0656 64.5505 39.8842C64.3691 39.7028 64.2672 39.4568 64.2672 39.2003V32.9951C64.2672 32.8683 64.2923 32.7427 64.3409 32.6256C64.3896 32.5085 64.4609 32.4021 64.5508 32.3126C64.6406 32.2232 64.7473 32.1523 64.8646 32.1042C64.982 32.056 65.1076 32.0316 65.2345 32.0321H84.2344C85.5129 32.0333 86.7389 32.5411 87.6438 33.4443C88.5487 34.3476 89.0587 35.5727 89.0621 36.8512V81.4621C89.0598 82.7426 88.5498 83.9698 87.644 84.8748C86.7382 85.7798 85.5105 86.2887 84.2301 86.2898ZM66.1974 84.351H84.2301C84.9982 84.3498 85.7345 84.0442 86.2776 83.5011C86.8208 82.9579 87.1264 82.2216 87.1276 81.4535V36.8512C87.1264 36.0831 86.8208 35.3468 86.2776 34.8036C85.7345 34.2605 84.9982 33.9549 84.2301 33.9537H66.1974V38.2287H78.8237C79.8438 38.2298 80.8217 38.6356 81.543 39.3569C82.2643 40.0782 82.6701 41.0561 82.6712 42.0762V76.2285C82.6701 77.2486 82.2643 78.2265 81.543 78.9478C80.8217 79.6691 79.8438 80.0749 78.8237 80.076H66.1974V84.351Z" fill="#231F20"/>
<path d="M31.3758 86.5316H26.099C24.8475 86.4977 23.66 85.971 22.7947 85.0661C21.9295 84.1613 21.4565 82.9514 21.4786 81.6996V46.7225C21.4755 45.8568 21.6988 45.0053 22.1263 44.2525C22.2564 44.0358 22.4663 43.8786 22.7109 43.8147C22.9555 43.7507 23.2154 43.7851 23.4349 43.9104C23.6545 44.0357 23.8163 44.242 23.8857 44.4851C23.955 44.7282 23.9264 44.9889 23.806 45.2112C23.5446 45.6719 23.4076 46.1928 23.4088 46.7225V81.6996C23.3819 82.4408 23.65 83.1625 24.1543 83.7064C24.6585 84.2504 25.3578 84.5722 26.099 84.6014H31.3758C32.1165 84.5711 32.8152 84.2489 33.3192 83.7052C33.8233 83.1616 34.0917 82.4405 34.066 81.6996V46.7225C34.0917 45.982 33.8231 45.2615 33.319 44.7185C32.8148 44.1755 32.1162 43.8543 31.3758 43.825H29.0915C28.8349 43.825 28.5889 43.7231 28.4075 43.5417C28.2261 43.3603 28.1242 43.1143 28.1242 42.8578C28.1242 42.6012 28.2261 42.3552 28.4075 42.1738C28.5889 41.9924 28.8349 41.8905 29.0915 41.8905H31.3758C32.6273 41.9244 33.8148 42.4511 34.68 43.356C35.5453 44.2609 36.0183 45.4707 35.9962 46.7225V81.6996C36.0183 82.9514 35.5453 84.1613 34.68 85.0661C33.8148 85.971 32.6273 86.4977 31.3758 86.5316Z" fill="#231F20"/>
<path d="M52.5348 86.5316H47.2536C46.0021 86.4977 44.8146 85.971 43.9494 85.0661C43.0841 84.1613 42.6111 82.9514 42.6332 81.6996V46.7225C42.6111 45.4707 43.0841 44.2609 43.9494 43.356C44.8146 42.4511 46.0021 41.9244 47.2536 41.8905H52.5348C53.7863 41.9244 54.9738 42.4511 55.839 43.356C56.7043 44.2609 57.1773 45.4707 57.1552 46.7225V81.6996C57.1773 82.9514 56.7043 84.1613 55.839 85.0661C54.9738 85.971 53.7863 86.4977 52.5348 86.5316ZM47.2536 43.8121C46.514 43.8424 45.8165 44.1641 45.3133 44.707C44.81 45.2499 44.542 45.9698 44.5677 46.7096V81.6867C44.5409 82.4272 44.8084 83.1482 45.3117 83.692C45.815 84.2358 46.5133 84.5581 47.2536 84.5885H52.5348C53.2755 84.5581 53.9742 84.236 54.4782 83.6923C54.9822 83.1486 55.2507 82.4276 55.225 81.6867V46.7096C55.2507 45.9691 54.9821 45.2485 54.4779 44.7055C53.9738 44.1625 53.2751 43.8413 52.5348 43.8121H47.2536Z" fill="#231F20"/>
</g>
<defs>
<clipPath id="clip0_14_20">
<rect width="89.0621" height="100" fill="white"/>
</clipPath>
</defs>
</svg>
