<svg width="153" height="40" viewBox="0 0 153 40" fill="none" xmlns="http://www.w3.org/2000/svg">
<path d="M46.5744 0.167953V6.00829V7.05871C47.333 6.13434 48.176 5.46207 49.1033 5.0419C50.0306 4.62174 51.0421 4.41165 52.138 4.41165C54.119 4.41165 55.8049 5.12594 57.1958 6.55451C58.5868 7.98308 59.2611 9.70577 59.2611 11.7226C59.2611 13.8234 58.5446 15.5881 57.1537 17.0167C55.7628 18.4453 53.9925 19.1595 51.8429 19.1595C50.7892 19.1595 49.8198 18.9495 48.9768 18.5293C48.0917 18.1091 47.2909 17.4789 46.5744 16.6385V18.7394H44.8041V0.167953H46.5744ZM46.5744 11.8906C46.5744 13.4032 47.1223 14.7058 48.176 15.7982C49.2297 16.8906 50.4942 17.4789 51.8429 17.4789C53.3603 17.4789 54.6669 16.9327 55.7206 15.7982C56.7744 14.6638 57.3223 13.3192 57.3223 11.6806C57.3223 10.1259 56.7744 8.82342 55.7206 7.73098C54.6669 6.63854 53.4025 6.13434 51.8851 6.13434C50.4099 6.13434 49.1454 6.68056 48.0917 7.81501C47.1223 8.86543 46.5744 10.252 46.5744 11.8906Z" fill="white"/>
<path d="M63.8132 3.06711H62.0008V0.167953H63.8132V3.06711ZM62.0008 18.7394V4.70577H63.8132V18.7394H62.0008Z" fill="white"/>
<path d="M69.0818 18.7394H67.2272V4.70577H68.9553V6.34442C69.419 5.71417 69.8826 5.25198 70.4305 4.95787C70.9785 4.66375 71.5686 4.49568 72.2851 4.49568V6.42845C71.1471 6.51249 70.3462 6.84862 69.8405 7.43686C69.3347 8.02509 69.0818 8.94946 69.0818 10.252V18.7394Z" fill="white"/>
<path d="M86.2785 6.93266V3.7814V0.167953H88.0909V18.7394H86.2785V16.6385C85.6462 17.4369 84.8454 18.0251 83.9181 18.4873C82.9909 18.9074 81.9793 19.1595 80.9256 19.1595C78.9024 19.1595 77.1743 18.4453 75.7834 17.0167C74.3925 15.5881 73.676 13.8234 73.676 11.7646C73.676 9.70577 74.3504 7.98308 75.7413 6.55451C77.1322 5.12594 78.8603 4.45367 80.9256 4.45367C82.0214 4.45367 83.0752 4.66375 83.9603 5.08392C84.8876 5.46207 85.6462 6.09232 86.2785 6.93266ZM86.3628 11.8906C86.3628 10.294 85.8148 8.90745 84.7611 7.773C83.7074 6.63854 82.4429 6.09232 81.0099 6.09232C79.5347 6.09232 78.2281 6.63854 77.1743 7.68896C76.1206 8.7814 75.5727 10.0839 75.5727 11.6385C75.5727 13.2772 76.1206 14.6638 77.1743 15.7562C78.2281 16.8906 79.5347 17.4369 81.052 17.4369C82.4429 17.4369 83.7074 16.8906 84.7611 15.7562C85.8148 14.6638 86.3628 13.3612 86.3628 11.8906Z" fill="white"/>
<path d="M103.138 15.21L106.552 4.70576H108.491L103.728 18.7394H102.548L99.2182 10.21L95.9306 18.7394H94.7504L89.9876 4.70576H91.8843L95.3405 15.21L98.5859 6.84862H99.8925L103.138 15.21Z" fill="white"/>
<path d="M109.587 11.7226C109.587 9.66376 110.303 7.89905 111.736 6.42847C113.169 4.95788 114.855 4.24359 116.794 4.24359C118.859 4.24359 120.588 4.95788 122.021 6.38645C123.454 7.81502 124.17 9.53771 124.17 11.5125C124.17 13.6133 123.454 15.378 122.063 16.8907C120.63 18.3612 118.944 19.1175 116.921 19.1175C114.855 19.1175 113.127 18.4033 111.694 16.9327C110.261 15.5041 109.587 13.7814 109.587 11.7226ZM111.483 11.7226C111.483 13.3192 111.989 14.7058 113.043 15.7982C114.097 16.8907 115.361 17.4369 116.921 17.4369C118.438 17.4369 119.702 16.8907 120.756 15.7982C121.768 14.7058 122.316 13.3612 122.316 11.7226C122.316 10.0419 121.81 8.69737 120.756 7.64695C119.702 6.59653 118.396 6.05031 116.794 6.05031C115.361 6.05031 114.097 6.59653 113.085 7.68897C111.989 8.73939 111.483 10.0839 111.483 11.7226Z" fill="white"/>
<path d="M128.638 18.7394H126.783V4.70577H128.512V6.34442C128.975 5.71417 129.439 5.25198 129.987 4.95787C130.535 4.66375 131.125 4.49568 131.841 4.49568V6.42845C130.703 6.51249 129.902 6.84862 129.397 7.43686C128.891 8.02509 128.638 8.94946 128.638 10.252V18.7394Z" fill="white"/>
<path d="M133.991 18.7394V0.167953H135.803V18.7394H133.991Z" fill="white"/>
<path d="M151.145 6.93266V3.7814V0.167953H152.958V18.7394H151.145V16.6385C150.513 17.4369 149.712 18.0251 148.785 18.4873C147.858 18.9074 146.846 19.1595 145.793 19.1595C143.769 19.1595 142.041 18.4453 140.65 17.0167C139.259 15.5881 138.543 13.8234 138.543 11.7646C138.543 9.70577 139.217 7.98308 140.608 6.55451C141.999 5.12594 143.727 4.45367 145.793 4.45367C146.888 4.45367 147.942 4.66375 148.827 5.08392C149.755 5.46207 150.513 6.09232 151.145 6.93266ZM151.23 11.8906C151.23 10.294 150.682 8.90745 149.628 7.773C148.574 6.63854 147.31 6.09232 145.877 6.09232C144.402 6.09232 143.095 6.63854 142.041 7.68896C140.988 8.7814 140.44 10.0839 140.44 11.6385C140.44 13.2772 140.988 14.6638 142.041 15.7562C143.095 16.8906 144.402 17.4369 145.919 17.4369C147.31 17.4369 148.532 16.8906 149.628 15.7562C150.682 14.6638 151.23 13.3612 151.23 11.8906Z" fill="white"/>
<path d="M57.3644 25.5881H59.1347V33.0251C59.1347 34.9579 59.4297 36.3024 60.062 37.1007C60.6942 37.899 61.7058 38.2772 63.1388 38.2772C63.9396 38.2772 64.6562 38.1091 65.2884 37.773C65.9206 37.4369 66.3843 36.9747 66.7636 36.3444C66.9744 35.9663 67.143 35.5461 67.2272 35.0419C67.3115 34.5377 67.3537 33.6974 67.3537 32.4369V25.5881H69.1661V39.6217H67.438V38.1091C66.8901 38.7814 66.2578 39.2436 65.5834 39.5377C64.9091 39.8318 64.0661 39.9999 63.1388 39.9999C61.1157 39.9999 59.6405 39.4537 58.7132 38.3612C57.8281 37.2688 57.3644 35.4621 57.3644 32.899V25.5881Z" fill="white"/>
<path d="M74.1396 39.6217H72.2851V25.5881H74.0132V27.2268C74.4768 26.5965 74.9405 26.1343 75.4884 25.8402C76.0363 25.5461 76.6264 25.378 77.3429 25.378V27.3108C76.2049 27.3948 75.4041 27.731 74.8983 28.3192C74.3925 28.9074 74.1396 29.8318 74.1396 31.1343V39.6217Z" fill="white"/>
<path d="M91.4628 37.3948C90.9148 38.1932 90.114 38.8234 89.1446 39.2856C88.1752 39.7478 87.1215 39.9579 86.0256 39.9579C83.9603 39.9579 82.2322 39.2436 80.8413 37.857C79.4504 36.4284 78.776 34.7058 78.776 32.6469C78.776 30.5461 79.4925 28.7814 80.8834 27.3948C82.2743 25.9663 84.0446 25.294 86.1942 25.294C87.2901 25.294 88.3016 25.5041 89.1867 25.9663C90.114 26.3864 90.8305 27.0167 91.4628 27.857V25.6301H93.233V39.6637H91.4628V37.3948ZM91.4628 32.5209C91.4628 31.0503 90.9148 29.7478 89.8611 28.6133C88.8074 27.5209 87.5429 26.9326 86.152 26.9326C84.6347 26.9326 83.3281 27.4789 82.2743 28.6133C81.2206 29.7058 80.6727 31.0923 80.6727 32.731C80.6727 34.2856 81.2206 35.6301 82.2743 36.6805C83.3281 37.773 84.6347 38.2772 86.1099 38.2772C87.5429 38.2772 88.8074 37.6889 89.8611 36.5545C90.9148 35.4621 91.4628 34.1175 91.4628 32.5209Z" fill="white"/>
<path d="M95.762 25.5881H97.5322V27.1847C98.0801 26.5545 98.7545 26.0923 99.4711 25.7562C100.188 25.4621 101.031 25.294 102 25.294C103.054 25.294 103.981 25.5041 104.782 25.8822C105.583 26.2604 106.215 26.8066 106.721 27.5209C107.058 28.0251 107.269 28.6133 107.437 29.2856C107.564 29.9579 107.648 30.9663 107.648 32.2688V39.6217H105.793V31.7646C105.793 30.0839 105.456 28.9074 104.824 28.1511C104.192 27.3948 103.18 27.0167 101.747 27.0167C100.904 27.0167 100.188 27.1847 99.5975 27.5209C98.9653 27.857 98.5016 28.3192 98.1223 28.9495C97.9116 29.3276 97.743 29.7478 97.6587 30.252C97.5744 30.7562 97.5322 31.5965 97.5322 32.815V39.6637H95.762V25.5881Z" fill="white"/>
<path d="M122.906 27.815V24.7057V21.0503H124.718V39.6217H122.906V37.5209C122.274 38.3192 121.473 38.9074 120.545 39.3696C119.618 39.7898 118.607 40.0419 117.553 40.0419C115.53 40.0419 113.802 39.3276 112.411 37.899C111.02 36.4704 110.303 34.7057 110.303 32.6469C110.303 30.5881 110.978 28.8654 112.369 27.4368C113.759 26.0083 115.488 25.336 117.553 25.336C118.649 25.336 119.702 25.5461 120.588 25.9662C121.515 26.3444 122.274 26.9746 122.906 27.815ZM122.948 32.731C122.948 31.1343 122.4 29.7478 121.346 28.6133C120.293 27.4788 119.028 26.9326 117.595 26.9326C116.12 26.9326 114.813 27.4789 113.759 28.5293C112.706 29.6217 112.158 30.9242 112.158 32.4789C112.158 34.1175 112.706 35.5041 113.759 36.5965C114.813 37.731 116.12 38.2772 117.637 38.2772C119.028 38.2772 120.25 37.731 121.346 36.5965C122.442 35.5461 122.948 34.2436 122.948 32.731Z" fill="white"/>
<path d="M140.102 37.3948C139.555 38.1932 138.754 38.8234 137.784 39.2856C136.815 39.7478 135.761 39.9579 134.665 39.9579C132.6 39.9579 130.872 39.2436 129.481 37.857C128.09 36.4284 127.416 34.7058 127.416 32.6469C127.416 30.5461 128.132 28.7814 129.523 27.3948C130.914 25.9663 132.684 25.294 134.834 25.294C135.93 25.294 136.941 25.5041 137.826 25.9663C138.754 26.3864 139.47 27.0167 140.102 27.857V25.6301H141.873V39.6637H140.102V37.3948ZM140.102 32.5209C140.102 31.0503 139.555 29.7478 138.501 28.6133C137.447 27.5209 136.183 26.9326 134.792 26.9326C133.274 26.9326 131.968 27.4789 130.914 28.6133C129.86 29.7058 129.312 31.0923 129.312 32.731C129.312 34.2856 129.86 35.6301 130.914 36.6805C131.968 37.773 133.274 38.2772 134.75 38.2772C136.183 38.2772 137.447 37.6889 138.501 36.5545C139.555 35.4621 140.102 34.1175 140.102 32.5209Z" fill="white"/>
<path d="M55.552 25.7982H53.4024L46.7008 34.3276V21.0503H44.8884V39.6217H46.7008V36.9746L48.8925 34.2015L52.981 39.6217H55.552L50.0727 32.6889L55.552 25.7982Z" fill="white"/>
<path d="M33.3396 10.7563C36.3192 10.7563 38.7347 8.34841 38.7347 5.37814C38.7347 2.40787 36.3192 -1.52588e-05 33.3396 -1.52588e-05C30.36 -1.52588e-05 27.9446 2.40787 27.9446 5.37814C27.9446 8.34841 30.36 10.7563 33.3396 10.7563Z" fill="#F59C1D"/>
<path d="M21.7066 9.03362C13.1504 9.03362 6.19584 15.9664 6.19584 24.4958C6.19584 25.5462 6.28013 26.5546 6.49088 27.521L-3.05176e-05 36.2185H11.5487C14.2463 38.5714 17.7867 39.958 21.6644 39.958C30.2206 39.958 37.1752 33.0252 37.1752 24.4958C37.1752 15.9664 30.2628 9.03362 21.7066 9.03362ZM21.7066 31.5966C17.7867 31.5966 14.5834 28.4034 14.5834 24.4958C14.5834 20.5882 17.7867 17.395 21.7066 17.395C25.6264 17.395 28.8297 20.5882 28.8297 24.4958C28.8297 28.4034 25.6264 31.5966 21.7066 31.5966Z" fill="white"/>
</svg>
