<svg width="104" height="66" fill="none" xmlns="http://www.w3.org/2000/svg">
  <path fill-rule="evenodd" clip-rule="evenodd"
    d="M53.393 7.478a3.816 3.816 0 0 0 2.742-3.663A3.812 3.812 0 0 0 52.325 0a3.812 3.812 0 0 0-3.81 3.815 3.814 3.814 0 0 0 3.235 3.772l-.072.973c-.04.545-.265 3.079-.501 5.63a6199.597 6199.597 0 0 0-1.417 15.505c-.914 10.255-1.48 16.135-1.543 16.02-.04-.074-.222-.65-.403-1.28-.181-.631-.625-2.154-.986-3.386a5833.559 5833.559 0 0 0-2.422-8.243c-.248-.84-.614-2.093-.813-2.784-.2-.69-.732-2.508-1.184-4.04-.452-1.53-1.346-4.577-1.988-6.769-.64-2.192-1.43-4.87-1.752-5.95l-.587-1.965.054-.036a3.816 3.816 0 0 0 2.108-3.414 3.81 3.81 0 0 0-7.229-1.684 3.844 3.844 0 0 0-.38 2.4c.26 1.619 1.623 2.921 3.233 3.087.325.034.608.115.63.181.022.067.141.98.265 2.031.376 3.197.995 8.325 2.247 18.616.519 4.268.638 5.256 1.087 9.007.211 1.772.462 3.844.556 4.605.095.762.155 1.461.135 1.555-.02.093-.59-.824-1.264-2.04-.675-1.215-2.053-3.683-3.063-5.485-1.01-1.801-2.343-4.184-2.965-5.295a8081.037 8081.037 0 0 0-6.259-11.177c-.705-1.255-1.03-1.922-1.004-2.067a3.81 3.81 0 0 0 1.386-2.943 3.812 3.812 0 0 0-3.81-3.815A3.812 3.812 0 0 0 20 18.633v.006a3.812 3.812 0 0 0 4.47 3.758l.13.007 6.274 18.848c5.953 17.881 6.302 18.888 6.807 19.65 1.564 2.354 5.163 4.055 10.236 4.838 2.09.322 6.811.351 8.936.055 4.801-.669 8.28-2.079 10.372-4.206 1-1.018 1.384-1.727 1.895-3.507.216-.75.536-1.856.712-2.457a6149.667 6149.667 0 0 1 3.342-11.464l.891-3.057c.21-.72.597-2.047.858-2.948.26-.9.768-2.645 1.128-3.876a6682.288 6682.288 0 0 0 2.925-10.045c.269-.93.586-2.015.705-2.41l.209-.69a3.84 3.84 0 0 0 1.573-.207c.987-.309 1.78-1.038 2.274-2.116.181-.393.268-.922.263-1.457v-.024c0-.228-.02-.452-.059-.67a3.284 3.284 0 0 0-.358-1.067 3.809 3.809 0 0 0-7.202 1.737c0 1.34.69 2.52 1.735 3.2.016.026.025.044.025.055 0 .048-.266.656-.592 1.35-.326.694-.762 1.63-.97 2.081-.208.45-1.25 2.686-2.313 4.968a2144.786 2144.786 0 0 0-2.261 4.858c-.18.39-.967 2.086-1.75 3.767l-1.905 4.095c-2.549 5.48-2.819 6.023-2.854 5.729-.02-.166.042-1.314.137-2.551.094-1.238.27-3.65.391-5.362.12-1.712.293-4.07.382-5.24.09-1.172.262-3.555.382-5.296s.291-4.1.379-5.24c.414-5.368.505-6.609.657-8.9.166-2.512.222-3.223.35-3.42A3.813 3.813 0 0 0 71.59 7.63a3.812 3.812 0 0 0-5.493-3.424 3.091 3.091 0 0 0-.701.448 3.816 3.816 0 0 0 1.063 6.555c-.012.076-.256 1.095-.553 2.306A3468.6 3468.6 0 0 1 63.095 25c-.717 2.912-2.003 8.145-2.857 11.628-2.236 9.114-2.48 10.063-2.548 9.88-.033-.09-.483-4.02-.998-8.734-1.139-10.405-1.893-17.26-2.404-21.836-.645-5.783-.928-8.444-.9-8.457l.005-.003Zm10.01 51.682c0-1.576-1.986-2.659-5.895-3.211-1.485-.21-6.986-.307-8.678-.153-4.192.381-6.904 1.29-7.649 2.56-.343.585-.336 1.041.024 1.704.956 1.756 4.826 3.11 9.606 3.36 6.977.365 12.593-1.534 12.593-4.26Z"
    fill="url(#paint0_linear_76_437)" />
  <path
    d="M6.048 17.6h4.512c.96 0 1.824.139 2.592.416.79.277 1.45.683 1.984 1.216a4.973 4.973 0 0 1 1.216 1.888c.299.725.448 1.557.448 2.496a6.272 6.272 0 0 1-.736 2.944 6.204 6.204 0 0 1-1.952 2.304 4.636 4.636 0 0 1-2.752.864c.363.15.757.459 1.184.928.427.448.8.885 1.12 1.312l.416.64c.299.405.661.907 1.088 1.504.448.597.896 1.184 1.344 1.76.448.576.832 1.035 1.152 1.376.427.47.853.885 1.28 1.248.427.363.885.65 1.376.864.512.213 1.077.32 1.696.32V40h-1.76c-.981 0-1.835-.15-2.56-.448-.704-.299-1.301-.661-1.792-1.088-.49-.448-.907-.875-1.248-1.28l-.544-.736a58.285 58.285 0 0 0-1.024-1.44 117.073 117.073 0 0 0-2.144-3.104l-.48-.704a11.008 11.008 0 0 0-1.344-1.472c-.49-.448-1.024-.672-1.6-.672v-.32l.48.032c.341 0 .747-.01 1.216-.032a10.098 10.098 0 0 0 1.824-.256c.661-.15 1.28-.459 1.856-.928.576-.47 1.013-1.184 1.312-2.144a6.338 6.338 0 0 0 .192-1.92c-.021-1.45-.395-2.603-1.12-3.456-.704-.875-1.653-1.344-2.848-1.408a17.752 17.752 0 0 0-1.856-.032H6.368c0-.021-.032-.107-.096-.256a3.164 3.164 0 0 0-.16-.48l-.064-.256Zm.416 0V40h-2.08V17.6h2.08ZM4.48 37.664V40H1.92v-.32H2.336c.555 0 1.024-.192 1.408-.576.405-.405.619-.885.64-1.44h.096Zm0-17.728h-.096a1.976 1.976 0 0 0-.64-1.408 1.865 1.865 0 0 0-1.408-.608H1.92v-.32h2.56v2.336Zm1.888 17.728h.096c0 .555.203 1.035.608 1.44.405.384.885.576 1.44.576h.384V40H6.368v-2.336Zm27.579-20.512c2.282 0 4.288.49 6.016 1.472a10.128 10.128 0 0 1 4.032 4.064c.981 1.75 1.472 3.787 1.472 6.112s-.49 4.363-1.472 6.112a10.342 10.342 0 0 1-4.032 4.096c-1.728.96-3.734 1.44-6.016 1.44-2.262 0-4.256-.48-5.984-1.44a10.563 10.563 0 0 1-4.064-4.096c-.96-1.75-1.44-3.787-1.44-6.112s.48-4.363 1.44-6.112c.981-1.75 2.336-3.104 4.064-4.064 1.728-.981 3.722-1.472 5.984-1.472Zm0 22.336c1.813 0 3.392-.448 4.736-1.344 1.365-.896 2.421-2.144 3.168-3.744.768-1.6 1.152-3.467 1.152-5.6 0-2.133-.384-4-1.152-5.6-.747-1.6-1.803-2.848-3.168-3.744-1.344-.896-2.923-1.344-4.736-1.344-1.792 0-3.37.448-4.736 1.344-1.344.896-2.4 2.144-3.168 3.744-.747 1.6-1.12 3.467-1.12 5.6 0 2.133.373 4 1.12 5.6.768 1.6 1.824 2.848 3.168 3.744 1.365.896 2.944 1.344 4.736 1.344ZM52.87 17.6V40h-2.08V17.6h2.08Zm8.64 21.408V40h-8.736v-.992h8.736Zm1.952-4.192L61.606 40h-5.312l1.152-.992c1.13 0 2.048-.17 2.752-.512a4.642 4.642 0 0 0 1.76-1.504c.448-.64.843-1.365 1.184-2.176h.32Zm-12.576 2.848V40h-2.56v-.32H48.742c.555 0 1.024-.192 1.408-.576.406-.405.619-.885.64-1.44h.096Zm0-17.728h-.096a1.977 1.977 0 0 0-.64-1.408 1.865 1.865 0 0 0-1.408-.608H48.326v-.32h2.56v2.336Zm1.888 0V17.6h2.56v.32H54.918c-.554 0-1.034.203-1.44.608a2.032 2.032 0 0 0-.608 1.408h-.096ZM70.37 17.6V40h-2.08V17.6h2.08Zm8.64 21.408V40h-8.736v-.992h8.736ZM77.634 28.48v.96h-7.36v-.96h7.36ZM79.01 17.6v.992h-8.736V17.6h8.736Zm1.952 17.216L79.106 40h-5.312l1.152-.992c1.13 0 2.048-.17 2.752-.512a4.642 4.642 0 0 0 1.76-1.504c.448-.64.843-1.365 1.184-2.176h.32Zm-3.328-5.44v2.112h-.32v-.48c0-.427-.15-.79-.448-1.088a1.433 1.433 0 0 0-1.088-.48v-.064h1.856Zm0-2.944v2.112h-1.856v-.064a1.6 1.6 0 0 0 1.088-.48 1.59 1.59 0 0 0 .448-1.12v-.448h.32Zm1.376-7.936v2.56h-.32v-.576c0-.512-.181-.95-.544-1.312a1.885 1.885 0 0 0-1.344-.608v-.064h2.208Zm0-1.472v.928l-3.904-.352c.47 0 .96-.032 1.472-.096a21.775 21.775 0 0 0 1.472-.224c.448-.085.768-.17.96-.256Zm-10.624 20.64V40h-2.56v-.32H66.242c.555 0 1.024-.192 1.408-.576.406-.405.619-.885.64-1.44h.096Zm0-17.728h-.096c0-.555-.202-1.024-.608-1.408a1.969 1.969 0 0 0-1.44-.608h-.384l-.032-.32h2.56v2.336ZM87.367 17.6l14.24 22.368h-2.56L84.871 17.6h2.496Zm.416 20.096a1.12 1.12 0 0 0-.16.928c.085.299.245.555.48.768.256.192.523.288.8.288H89.319V40h-7.264v-.32h.448c.683 0 1.312-.192 1.888-.576.576-.384 1.035-.821 1.376-1.312l2.016-.096Zm4.48-9.6.736 1.376-6.656 10.496h-2.048l7.968-11.872Zm5.344 9.6 2.624.128c.341.49.8.928 1.376 1.312a3.422 3.422 0 0 0 1.856.544h.448V40h-7.808v-.32h.384c.448 0 .81-.213 1.088-.64.299-.427.31-.875.032-1.344ZM90.343 17.6v.32h-.384c-.277 0-.544.107-.8.32a1.441 1.441 0 0 0-.48.768c-.064.299-.01.597.16.896l-2.56-.096c-.341-.49-.8-.928-1.376-1.312a3.187 3.187 0 0 0-1.856-.576h-.448v-.32h7.744Zm10.784 0-7.52 11.072-1.088-.768L99.047 17.6h2.08Zm2.176 0v.32h-.448c-.661 0-1.28.192-1.856.576a5.775 5.775 0 0 0-1.376 1.312l-2.048.096c.192-.299.245-.597.16-.896a1.283 1.283 0 0 0-.448-.768 1.157 1.157 0 0 0-.8-.32h-.384v-.32h7.2Z"
    fill="#fff" />
  <defs>
    <linearGradient id="paint0_linear_76_437" x1="52" y1="0" x2="52" y2="66" gradientUnits="userSpaceOnUse">
      <stop stop-color="#fff" stop-opacity=".12" />
      <stop offset="1" stop-color="#fff" stop-opacity="0" />
    </linearGradient>
  </defs>
</svg>